<?xml version="1.0" encoding="UTF-8"?>
<svg width="272px" height="53px" viewBox="0 0 272 53" version="1.1" xmlns="http://www.w3.org/2000/svg" xmlns:xlink="http://www.w3.org/1999/xlink">
    <!-- Generator: Sketch 59.1 (86144) - https://sketch.com -->
    <title>appsody_full_logo_white</title>
    <desc>Created with Sketch.</desc>
    <g id="Page-1" stroke="none" stroke-width="1" fill="none" fill-rule="evenodd">
        <g id="appsody_full_logo" fill-rule="nonzero">
            <path d="M87.58,13.85 C89.5735075,14.9997909 91.2210584,16.6646117 92.35,18.67 C93.5316132,20.7468169 94.1390789,23.1007464 94.11,25.49 L94.11,36.23 C94.1295786,36.8882395 93.8766932,37.5253903 93.4110417,37.9910417 C92.9453903,38.4566932 92.3082395,38.7095786 91.65,38.69 C90.9917605,38.7095786 90.3546097,38.4566932 89.8889583,37.9910417 C89.4233068,37.5253903 89.1704214,36.8882395 89.19,36.23 L89.19,34.45 C85.3646751,39.0687751 78.73659,40.1954221 73.6,37.1 C71.7112774,35.9406882 70.1785144,34.2833666 69.17,32.31 C68.0753059,30.2052474 67.5187477,27.8622061 67.55,25.49 C67.5186571,23.1030291 68.1189392,20.7501993 69.29,18.67 C70.4161798,16.6523987 72.0770988,14.9845592 74.09,13.85 C76.1478958,12.6665756 78.4863011,12.0586593 80.86,12.09 C83.2181776,12.056245 85.5411161,12.6646337 87.58,13.85 Z M85.22,33.32 C86.5136758,32.5403 87.5713156,31.4239024 88.28,30.09 C89.0316649,28.6746816 89.4134847,27.0923654 89.39,25.49 C89.4133684,23.8780863 89.0317037,22.2860972 88.28,20.86 C87.1807945,18.8307814 85.3020238,17.3372138 83.0771966,16.7239239 C80.8523693,16.1106339 78.473684,16.4306025 76.49,17.61 C75.1875567,18.3939193 74.1228822,19.5173583 73.41,20.86 C72.6426936,22.2809604 72.2535733,23.8753207 72.28,25.49 C72.2537773,27.0951124 72.643043,28.6797339 73.41,30.09 C74.1294382,31.4226602 75.1930305,32.5380508 76.49,33.32 C79.1871453,34.8940486 82.5228547,34.8940486 85.22,33.32 L85.22,33.32 Z" id="Shape" fill="#FFFFFF"></path>
            <path d="M119.05,13.85 C121.060699,14.9874515 122.720919,16.6545889 123.85,18.67 C125.017575,20.751165 125.614393,23.1039371 125.58,25.49 C125.624018,27.8588662 125.081222,30.2018201 124,32.31 C122.988513,34.2812899 121.456421,35.9378868 119.57,37.1 C117.679702,38.262315 115.498907,38.8655874 113.28,38.84 C109.670935,38.8668345 106.245375,37.2515597 103.97,34.45 L103.97,47.45 C103.956729,48.4404259 103.359966,49.329617 102.448423,49.7171851 C101.53688,50.1047533 100.482479,49.917601 99.76,49.24 C99.2843404,48.7689692 99.0300645,48.1187495 99.06,47.45 L99.06,25.45 C99.0260626,23.0601621 99.6338523,20.7049772 100.82,18.63 C101.948942,16.6246117 103.596492,14.9597909 105.59,13.81 C107.628884,12.6246337 109.951822,12.016245 112.31,12.05 C114.677119,12.0371669 117.004456,12.6587109 119.05,13.85 Z M116.64,33.32 C117.937597,32.5356383 119.003868,31.4210569 119.73,30.09 C120.492739,28.6781037 120.88173,27.0946027 120.86,25.49 C120.881547,23.8758708 120.492722,22.2827201 119.73,20.86 C119.010301,19.5190123 117.942978,18.3964233 116.64,17.61 C114.663467,16.407469 112.278087,16.0745015 110.047806,16.6898166 C107.817525,17.3051318 105.940322,18.814109 104.86,20.86 C104.108296,22.2860972 103.726632,23.8780863 103.75,25.49 C103.726515,27.0923654 104.108335,28.6746816 104.86,30.09 C105.568684,31.4239024 106.626324,32.5403 107.92,33.32 C110.613481,34.89437 113.946519,34.89437 116.64,33.32 L116.64,33.32 Z" id="Shape" fill="#FFFFFF"></path>
            <path d="M149.32,13.85 C151.330699,14.9874515 152.990919,16.6545889 154.12,18.67 C155.283166,20.7529226 155.879679,23.1044935 155.85,25.49 C155.879803,27.8608623 155.326948,30.2027696 154.24,32.31 C153.224932,34.2819856 151.689451,35.9385071 149.8,37.1 C147.910364,38.2638358 145.72912,38.8672323 143.51,38.84 C139.904432,38.8637904 136.483179,37.2488117 134.21,34.45 L134.21,47.45 C134.254797,48.1151571 134.01004,48.7672351 133.538638,49.2386376 C133.067235,49.7100401 132.415157,49.9547966 131.75,49.91 C131.097501,49.9300635 130.463976,49.6888922 129.99,49.24 C129.521166,48.7651964 129.271165,48.1166426 129.3,47.45 L129.3,25.45 C129.267394,23.0616039 129.871425,20.7076093 131.05,18.63 C133.39416,14.5012297 137.80271,11.9787723 142.55,12.05 C144.927096,12.033262 147.265109,12.6548903 149.32,13.85 Z M146.91,33.32 C148.207597,32.5356383 149.273868,31.4210569 150,30.09 C150.762739,28.6781037 151.15173,27.0946027 151.13,25.49 C151.151547,23.8758708 150.762722,22.2827201 150,20.86 C149.280301,19.5190123 148.212978,18.3964233 146.91,17.61 C144.933467,16.407469 142.548087,16.0745015 140.317806,16.6898166 C138.087525,17.3051318 136.210322,18.814109 135.13,20.86 C134.371352,22.2842772 133.982786,23.8763655 134,25.49 C133.976515,27.0923654 134.358335,28.6746816 135.11,30.09 C135.818684,31.4239024 136.876324,32.5403 138.17,33.32 C140.863481,34.89437 144.196519,34.89437 146.89,33.32 L146.91,33.32 Z" id="Shape" fill="#FFFFFF"></path>
            <path d="M164.19,37.82 C162.497813,37.2933581 160.948365,36.3869485 159.66,35.17 C159.249541,34.7842149 159.0208,34.2432245 159.03,33.68 C159.023279,32.9243805 159.399671,32.2167633 160.03,31.8 C160.5037,31.4008798 161.09205,31.1627381 161.71,31.12 C162.41664,31.1456016 163.081802,31.4601078 163.55,31.99 C164.320671,32.7736379 165.256857,33.3749831 166.29,33.75 C167.53164,34.2536486 168.860127,34.5084735 170.2,34.5 C171.676716,34.5797429 173.147801,34.2620439 174.46,33.58 C175.397834,33.1178703 175.994036,32.1654952 176,31.12 C175.976563,30.0880895 175.41008,29.1452177 174.51,28.64 C172.921286,27.7854505 171.18929,27.2295848 169.4,27 C163.226667,25.8133333 160.14,23.2733333 160.14,19.38 C160.104574,17.9207601 160.602313,16.4986503 161.54,15.38 C162.521338,14.2534317 163.784449,13.4079067 165.2,12.93 C166.746131,12.3760608 168.377673,12.0984956 170.02,12.11 C171.940679,12.0729126 173.850004,12.4126502 175.64,13.11 C177.163862,13.694556 178.515587,14.6541773 179.57,15.9 C179.948162,16.3303642 180.167039,16.8775554 180.19,17.45 C180.163543,18.0472423 179.860397,18.5980801 179.37,18.94 C178.974733,19.2140829 178.500534,19.3510738 178.02,19.33 C177.17659,19.3243587 176.367558,18.9950182 175.76,18.41 C175.025594,17.7137323 174.153556,17.1789276 173.2,16.84 C172.140869,16.5170454 171.036996,16.3651362 169.93,16.39 C168.67462,16.3379546 167.425409,16.5919151 166.29,17.13 C165.438803,17.4824325 164.880034,18.3087815 164.87,19.23 C164.849677,19.8047116 165.018283,20.3702443 165.35,20.84 C165.848649,21.3793423 166.479441,21.7791882 167.18,22 C168.445743,22.4738883 169.750793,22.8352868 171.08,23.08 C174.586667,23.7866667 177.07,24.7666667 178.53,26.02 C179.965825,27.223395 180.772531,29.0173034 180.72,30.89 C180.72758,32.3131292 180.309702,33.7060556 179.52,34.89 C178.65135,36.1787069 177.429061,37.1891786 176,37.8 C174.21667,38.5208019 172.302511,38.8613995 170.38,38.8 C168.275878,38.8287245 166.182348,38.4972772 164.19,37.82 L164.19,37.82 Z" id="Path" fill="#FFFFFF"></path>
            <path d="M190.8,37.13 C188.80878,36.0219703 187.169618,34.3758775 186.07,32.38 C184.927939,30.2655859 184.349376,27.8927902 184.39,25.49 C184.344897,23.0676148 184.923419,20.6743235 186.07,18.54 C187.169808,16.5468272 188.809154,14.9040149 190.8,13.8 C192.907909,12.6380439 195.283405,12.0484796 197.69,12.09 C200.074086,12.0509244 202.426381,12.6407227 204.51,13.8 C206.491326,14.9132043 208.125183,16.553985 209.23,18.54 C210.404084,20.6829684 210.993815,23.0970734 210.94,25.54 C210.980624,27.9427902 210.402061,30.3155859 209.26,32.43 C208.16636,34.4202107 206.538527,36.0653618 204.56,37.18 C200.256479,39.4592045 195.103521,39.4592045 190.8,37.18 L190.8,37.13 Z M202.1,33.34 C203.375936,32.5703636 204.414197,31.4628857 205.1,30.14 C205.836225,28.7021459 206.20714,27.1051518 206.18,25.49 C206.205543,23.8654273 205.834851,22.2590972 205.1,20.81 C204.422228,19.4736258 203.38276,18.3544656 202.1,17.58 C199.361491,16.0406692 196.018509,16.0406692 193.28,17.58 C191.97983,18.3515984 190.920244,19.4700505 190.22,20.81 C189.464981,22.2528263 189.08337,23.8617826 189.11,25.49 C189.083267,27.1086605 189.46503,28.7079395 190.22,30.14 C190.926862,31.4673768 191.985551,32.5745034 193.28,33.34 C196.018509,34.8793308 199.361491,34.8793308 202.1,33.34 L202.1,33.34 Z" id="Shape" fill="#FFFFFF"></path>
            <path d="M240.39,1.68 C240.853615,2.15341603 241.099882,2.79805688 241.07,3.46 L241.07,25.46 C241.098116,27.8491373 240.490715,30.2028192 239.31,32.28 C238.174427,34.2803746 236.528425,35.9436302 234.54,37.1 C232.495702,38.2810685 230.170769,38.8890748 227.81,38.86 C225.42182,38.8850885 223.070453,38.2704874 221,37.08 C218.994228,35.9394658 217.337989,34.2728534 216.21,32.26 C215.040269,30.1792678 214.44008,27.8268016 214.47,25.44 C214.437497,23.0676559 214.994127,20.7243135 216.09,18.62 C217.100841,16.6456261 218.632874,14.9856358 220.52,13.82 C222.411128,12.6606876 224.592001,12.060861 226.81,12.09 C230.416793,12.0505211 233.843216,13.6642558 236.11,16.47 L236.11,3.47 C236.077822,2.80382722 236.332663,2.15580169 236.81,1.69 C237.28986,1.22268805 237.940726,0.97318939 238.61,1 C239.271748,0.971326852 239.915924,1.21741655 240.39,1.68 L240.39,1.68 Z M232.18,33.32 C233.479323,32.5340987 234.537825,31.4064138 235.24,30.06 C235.98741,28.6362805 236.365625,27.0477754 236.34,25.44 C236.367818,23.8351742 235.989426,22.2493664 235.24,20.83 C234.13149,18.8101341 232.250491,17.3268074 230.027844,16.7197739 C227.805196,16.1127404 225.431339,16.4340113 223.45,17.61 C222.153423,18.3880481 221.089683,19.50014 220.37,20.83 C219.598315,22.2424525 219.205565,23.8306762 219.23,25.44 C219.208358,27.0521838 219.600882,28.6429388 220.37,30.06 C221.082651,31.4054293 222.147171,32.5321623 223.45,33.32 C226.147145,34.8940486 229.482855,34.8940486 232.18,33.32 L232.18,33.32 Z" id="Shape" fill="#FFFFFF"></path>
            <path d="M271.33,14.4 C271.314097,14.80249 271.215375,15.197378 271.04,15.56 L256.29,48.72 C256.063793,49.5790758 255.298034,50.1859811 254.41,50.21 C254.01074,50.193875 253.619163,50.0951294 253.26,49.92 C252.402703,49.6747901 251.811288,48.8916747 251.81,48 C251.816052,47.5993479 251.915342,47.2056124 252.1,46.85 L256.92,36 L246.08,15.46 C245.914203,15.1532845 245.831468,14.8085546 245.84,14.46 C245.835631,14.0420623 245.969193,13.6343456 246.22,13.3 C246.477335,12.9452797 246.821743,12.6628645 247.22,12.48 C247.535256,12.3437404 247.876737,12.278859 248.22,12.29 C249.099305,12.2909665 249.890261,12.8248617 250.22,13.64 L259,31.17 L266.76,13.68 C267.018879,12.856524 267.776875,12.2920589 268.64,12.2798835 C269.039358,12.2763569 269.434874,12.3581879 269.8,12.52 C270.674908,12.7310356 271.301092,13.5004646 271.33,14.4 L271.33,14.4 Z" id="Path" fill="#FFFFFF"></path>
            <g id="Group" opacity="0.8" transform="translate(0.000000, 1.000000)" fill="#ED8E00">
                <path d="M26.88,0.92 C24.38,0.11 21.3,1.07 18.25,4 L4.87,16.82 C-1.22,22.66 0,29.45 7.62,31.92 L24.32,37.32 C31.93,39.79 36.92,35 35.4,26.7 L32.08,8.47 C31.32,4.31 29.39,1.73 26.88,0.92 Z" id="Path"></path>
            </g>
            <g id="Group" opacity="0.8" transform="translate(7.000000, 4.000000)" fill="#C4302F">
                <path d="M31.94,0.79 C30.0697604,0.946338752 28.2434607,1.44103216 26.55,2.25 L8.66,10.37 C4.09,12.45 1.35,15.64 0.94,19.37 C0.55,22.9 2.36,26.37 6.02,29.11 L21.02,40.42 C23.2824466,42.2934692 26.1431902,43.2908252 29.08,43.23 C33.85,42.92 37.37,38.88 38.28,32.69 L41.12,13.25 C42.12,6.69 39.47,3.65 37.83,2.41 C36.1123993,1.17596828 34.0052192,0.60742054 31.9,0.81 L31.94,0.79 Z" id="Path"></path>
            </g>
            <path d="M34.8,52.35 C31.87,52 29.23,50 27.31,46.47 L18,29.45 C15.89,25.61 15.7,21.98 17.46,19.23 C19.22,16.48 22.62,15 27.17,15 L47.44,14.93 C52,14.93 55.35,16.42 56.86,19.18 C58.37,21.94 57.86,25.56 55.41,29.41 L44.49,46.45 C42.05,50.28 38.91,52.39 35.66,52.4 C35.372514,52.4035879 35.0851332,52.3868797 34.8,52.35 L34.8,52.35 Z" id="Path" fill="#AF1F64" opacity="0.85"></path>
        </g>
    </g>
</svg>